# xmcd
#
# Track frame offsets: 
#        150
#        11512
#        25337
#        35842
#        53175
#        68157
#        77975
#        91622
#        106837
#        118095
#        129500
#        145527
#        161312
#        175840
#        189820
#        197647
#        212202
#        221897
#
# Disc length: 3101 seconds
#
# Revision: 0
# Processed by: cddbd v1.5.2PL0 Copyright (c) Steve Scherf et al.
# Submitted via: ExactAudioCopy v0.99pb5
#
DISCID=f40c1b12
DTITLE=Various Artist - Classic Country - TL 626-21 - Country Christmas
DYEAR=1999
DGENRE=Country
TTITLE0=Merle Haggard - White Christmas
TTITLE1=Glen Campbell - The Christmas song
TTITLE2=Slim Whitman - Silent night
TTITLE3=Tanya Tucker - Winter wonderland
TTITLE4=Larry Gatlin - Little drummer boy
TTITLE5=Wayne Newton - Let it snow! Let it snow! Let it snow!
TTITLE6=Tennessee Ernie Ford - The first Noel
TTITLE7=Merle Haggard - Silver bells
TTITLE8=Willie Nelson - Pretty paper
TTITLE9=Christy Lane - Away in a manger
TTITLE10=Sonny James - Do you hear what I hear
TTITLE11=Larry Gatlin - Sweet baby Jesus
TTITLE12=Sawyer Brown - Blue Christmas
TTITLE13=Tennessee Ernie Ford - It came upon a midnight clear
TTITLE14=Slim Whitman - Joy to the world
TTITLE15=Glen Campbell - Have yourself a merry little Christmas
TTITLE16=Eddie Rabbitt - Rockin' around the Christmas tree
TTITLE17=Merle Haggard - Jingle bells
EXTD=
EXTT0=
EXTT1=
EXTT2=
EXTT3=
EXTT4=
EXTT5=
EXTT6=
EXTT7=
EXTT8=
EXTT9=
EXTT10=
EXTT11=
EXTT12=
EXTT13=
EXTT14=
EXTT15=
EXTT16=
EXTT17=
PLAYORDER=
